<svg width="17" height="14" viewBox="0 0 17 14" fill="none" xmlns="http://www.w3.org/2000/svg">
<path d="M2.99127 3.46466C3.1788 3.27719 3.43311 3.17188 3.69827 3.17188C3.96344 3.17188 4.21775 3.27719 4.40527 3.46466L9.35527 8.41466L14.3053 3.46466C14.4939 3.2825 14.7465 3.18171 15.0087 3.18399C15.2709 3.18627 15.5217 3.29143 15.7071 3.47684C15.8925 3.66225 15.9977 3.91306 15.9999 4.17526C16.0022 4.43746 15.9014 4.69006 15.7193 4.87866L10.0623 10.5357C9.87474 10.7231 9.62044 10.8284 9.35527 10.8284C9.09011 10.8284 8.8358 10.7231 8.64827 10.5357L2.99127 4.87866C2.8038 4.69113 2.69849 4.43683 2.69849 4.17166C2.69849 3.9065 2.8038 3.65219 2.99127 3.46466Z" fill="black"/>
</svg>
