<svg width="40" height="40" viewBox="0 0 40 40" fill="none" xmlns="http://www.w3.org/2000/svg">
<path d="M29 3.75H13.6167C12.7267 3.75 11.9833 3.75 11.375 3.8C10.7417 3.85 10.1483 3.96333 9.58501 4.25C8.21835 4.945 7.57835 6.06333 7.30168 7.21667C7.07335 8.16 7.07835 9.19833 7.08168 10.0283L7.08335 10.3333V33.75C7.08335 34.413 7.34674 35.0489 7.81558 35.5178C8.28442 35.9866 8.92031 36.25 9.58335 36.25H27.3367C28.365 36.25 29.47 36.1067 30.2633 35.3367C31.07 34.5583 31.25 33.4417 31.25 32.3333V30.82C31.6918 30.5993 32.066 30.2636 32.3333 29.8483C32.7967 29.1283 32.9167 28.2383 32.9167 27.3333V7.66667C32.9167 6.64 32.7733 5.53333 32.005 4.73833C31.2267 3.93167 30.1117 3.75 29 3.75ZM27.3367 33.75H9.58335C9.58335 33.087 9.84674 32.4511 10.3156 31.9822C10.7844 31.5134 11.4203 31.25 12.0833 31.25H28.75V32.3333C28.75 33.2833 28.5667 33.5 28.5267 33.54C28.475 33.59 28.2483 33.75 27.3367 33.75ZM15.8333 15.4167H24.1667C24.4982 15.4167 24.8161 15.5484 25.0506 15.7828C25.285 16.0172 25.4167 16.3351 25.4167 16.6667C25.4167 16.9982 25.285 17.3161 25.0506 17.5505C24.8161 17.785 24.4982 17.9167 24.1667 17.9167H15.8333C15.5018 17.9167 15.1839 17.785 14.9495 17.5505C14.715 17.3161 14.5833 16.9982 14.5833 16.6667C14.5833 16.3351 14.715 16.0172 14.9495 15.7828C15.1839 15.5484 15.5018 15.4167 15.8333 15.4167Z" fill="#2D4C52"/>
</svg>
