<svg width="40" height="40" viewBox="0 0 40 40" fill="none" xmlns="http://www.w3.org/2000/svg">
<path fill-rule="evenodd" clip-rule="evenodd" d="M13.3333 6.66685C11.5652 6.66685 9.86951 7.36923 8.61927 8.61947C7.36902 9.86972 6.66665 11.5654 6.66665 13.3335C6.66665 15.1016 7.36902 16.7973 8.61927 18.0476C9.86951 19.2978 11.5652 20.0002 13.3333 20.0002C15.1014 20.0002 16.7971 19.2978 18.0474 18.0476C19.2976 16.7973 20 15.1016 20 13.3335C20 11.5654 19.2976 9.86972 18.0474 8.61947C16.7971 7.36923 15.1014 6.66685 13.3333 6.66685ZM9.99998 21.6669C8.23187 21.6669 6.53618 22.3692 5.28593 23.6195C4.03569 24.8697 3.33331 26.5654 3.33331 28.3335V30.0002C3.33331 30.8842 3.6845 31.7321 4.30962 32.3572C4.93474 32.9823 5.78259 33.3335 6.66665 33.3335H20C20.884 33.3335 21.7319 32.9823 22.357 32.3572C22.9821 31.7321 23.3333 30.8842 23.3333 30.0002V28.3335C23.3333 26.5654 22.6309 24.8697 21.3807 23.6195C20.1304 22.3692 18.4348 21.6669 16.6666 21.6669H9.99998ZM22.0833 18.1752C22.88 16.7419 23.3333 15.0919 23.3333 13.3335C23.3337 11.6393 22.9035 9.97267 22.0833 8.49019C23.0297 7.59473 24.2177 6.9962 25.5005 6.76857C26.7833 6.54093 28.1047 6.69416 29.3014 7.20933C30.4981 7.72449 31.5176 8.57901 32.2339 9.66727C32.9502 10.7555 33.332 12.0298 33.332 13.3327C33.332 14.6355 32.9502 15.9098 32.2339 16.9981C31.5176 18.0864 30.4981 18.9409 29.3014 19.456C28.1047 19.9712 26.7833 20.1244 25.5005 19.8968C24.2177 19.6692 23.0297 19.0706 22.0833 18.1752ZM25.7766 33.3335C26.3433 32.3535 26.6683 31.2152 26.6683 30.0002V28.3335C26.6714 25.8731 25.7643 23.4986 24.1216 21.6669H30C31.7681 21.6669 33.4638 22.3692 34.714 23.6195C35.9643 24.8697 36.6666 26.5654 36.6666 28.3335V30.0002C36.6666 30.8842 36.3155 31.7321 35.6903 32.3572C35.0652 32.9823 34.2174 33.3335 33.3333 33.3335H25.7766Z" fill="#2D4C52"/>
</svg>
