<svg width="40" height="40" viewBox="0 0 40 40" fill="none" xmlns="http://www.w3.org/2000/svg">
<path fill-rule="evenodd" clip-rule="evenodd" d="M23.75 4.16667C23.75 4.05616 23.7061 3.95018 23.6279 3.87204C23.5498 3.7939 23.4438 3.75 23.3333 3.75H11.6666C10.4511 3.75 9.28528 4.23289 8.42574 5.09243C7.5662 5.95197 7.08331 7.11776 7.08331 8.33333V31.6667C7.08331 32.8822 7.5662 34.048 8.42574 34.9076C9.28528 35.7671 10.4511 36.25 11.6666 36.25H28.3333C29.5489 36.25 30.7147 35.7671 31.5742 34.9076C32.4338 34.048 32.9166 32.8822 32.9166 31.6667V15.245C32.9166 15.1345 32.8727 15.0285 32.7946 14.9504C32.7165 14.8722 32.6105 14.8283 32.5 14.8283H25C24.6685 14.8283 24.3505 14.6966 24.1161 14.4622C23.8817 14.2278 23.75 13.9099 23.75 13.5783V4.16667ZM21.6666 19.1667C21.6666 18.5036 21.93 17.8677 22.3989 17.3989C22.8677 16.9301 23.5036 16.6667 24.1666 16.6667C24.8297 16.6667 25.4656 16.9301 25.9344 17.3989C26.4033 17.8677 26.6666 18.5036 26.6666 19.1667C26.6666 19.8297 26.4033 20.4656 25.9344 20.9344C25.4656 21.4033 24.8297 21.6667 24.1666 21.6667C23.5036 21.6667 22.8677 21.4033 22.3989 20.9344C21.93 20.4656 21.6666 19.8297 21.6666 19.1667ZM18.56 21.8367C18.4476 21.6569 18.2914 21.5086 18.1059 21.4059C17.9205 21.3031 17.712 21.2492 17.5 21.2492C17.288 21.2492 17.0794 21.3031 16.894 21.4059C16.7086 21.5086 16.5523 21.6569 16.44 21.8367L12.2733 28.5033C12.1548 28.6926 12.0892 28.9101 12.0832 29.1332C12.0773 29.3564 12.1312 29.5771 12.2394 29.7724C12.3476 29.9677 12.5061 30.1305 12.6985 30.2438C12.8908 30.3571 13.1101 30.4168 13.3333 30.4167H26.6666C26.8988 30.4167 27.1263 30.352 27.3238 30.23C27.5213 30.1079 27.6809 29.9333 27.7847 29.7257C27.8885 29.5181 27.9324 29.2856 27.9116 29.0544C27.8907 28.8232 27.8059 28.6024 27.6666 28.4167L25.1666 25.0833C25.0502 24.9281 24.8992 24.8021 24.7257 24.7153C24.5521 24.6285 24.3607 24.5833 24.1666 24.5833C23.9726 24.5833 23.7812 24.6285 23.6076 24.7153C23.4341 24.8021 23.2831 24.9281 23.1666 25.0833L21.76 26.9583L18.56 21.8367Z" fill="#2D4C52"/>
<path d="M26.25 4.70643C26.25 4.39976 26.5717 4.20477 26.81 4.39643C27.0122 4.55977 27.1917 4.74977 27.3483 4.96643L32.37 11.9614C32.4833 12.1214 32.36 12.3281 32.1633 12.3281H26.6667C26.5562 12.3281 26.4502 12.2842 26.372 12.2061C26.2939 12.1279 26.25 12.0219 26.25 11.9114V4.70643Z" fill="#2D4C52"/>
</svg>
