<svg width="40" height="40" viewBox="0 0 40 40" fill="none" xmlns="http://www.w3.org/2000/svg">
<path d="M20 5C20 5 9.68998 13.9 3.92831 18.72C3.74489 18.8797 3.59713 19.0762 3.49462 19.2967C3.39211 19.5172 3.33715 19.7568 3.33331 20C3.33331 20.442 3.50891 20.8659 3.82147 21.1785C4.13403 21.4911 4.55795 21.6667 4.99998 21.6667H8.33331V33.3333C8.33331 33.7754 8.50891 34.1993 8.82147 34.5118C9.13403 34.8244 9.55795 35 9.99998 35H15C15.442 35 15.8659 34.8244 16.1785 34.5118C16.4911 34.1993 16.6666 33.7754 16.6666 33.3333V26.6667H23.3333V33.3333C23.3333 33.7754 23.5089 34.1993 23.8215 34.5118C24.134 34.8244 24.558 35 25 35H30C30.442 35 30.8659 34.8244 31.1785 34.5118C31.4911 34.1993 31.6666 33.7754 31.6666 33.3333V21.6667H35C35.442 21.6667 35.8659 21.4911 36.1785 21.1785C36.4911 20.8659 36.6666 20.442 36.6666 20C36.6643 19.7522 36.6056 19.5082 36.495 19.2864C36.3844 19.0646 36.2248 18.871 36.0283 18.72C30.3066 13.9 20 5 20 5Z" fill="#2D4C52"/>
</svg>
