<svg width="40" height="40" viewBox="0 0 40 40" fill="none" xmlns="http://www.w3.org/2000/svg">
<path fill-rule="evenodd" clip-rule="evenodd" d="M5 8.33398C5 7.0079 5.52678 5.73613 6.46447 4.79845C7.40215 3.86077 8.67392 3.33398 10 3.33398H30C31.3261 3.33398 32.5979 3.86077 33.5355 4.79845C34.4732 5.73613 35 7.0079 35 8.33398V31.6673C35 32.9934 34.4732 34.2652 33.5355 35.2029C32.5979 36.1405 31.3261 36.6673 30 36.6673H10C8.67392 36.6673 7.40215 36.1405 6.46447 35.2029C5.52678 34.2652 5 32.9934 5 31.6673V8.33398ZM13.3333 8.33398V20.0007L17.155 16.179C17.4675 15.8665 17.8914 15.691 18.3333 15.691C18.7753 15.691 19.1991 15.8665 19.5117 16.179L23.3333 20.0007V8.33398C23.3333 7.89196 23.1577 7.46803 22.8452 7.15547C22.5326 6.84291 22.1087 6.66732 21.6667 6.66732H15C14.558 6.66732 14.134 6.84291 13.8215 7.15547C13.5089 7.46803 13.3333 7.89196 13.3333 8.33398Z" fill="#2D4C52"/>
</svg>
