<svg width="40" height="40" viewBox="0 0 40 40" fill="none" xmlns="http://www.w3.org/2000/svg">
<path d="M20 25.834C18.4529 25.834 16.9691 25.2194 15.8752 24.1254C14.7812 23.0315 14.1666 21.5478 14.1666 20.0007C14.1666 18.4536 14.7812 16.9698 15.8752 15.8759C16.9691 14.7819 18.4529 14.1673 20 14.1673C21.5471 14.1673 23.0308 14.7819 24.1248 15.8759C25.2187 16.9698 25.8333 18.4536 25.8333 20.0007C25.8333 21.5478 25.2187 23.0315 24.1248 24.1254C23.0308 25.2194 21.5471 25.834 20 25.834ZM32.3833 21.6173C32.45 21.084 32.5 20.5507 32.5 20.0007C32.5 19.4507 32.45 18.9007 32.3833 18.334L35.9 15.6173C36.2166 15.3673 36.3 14.9173 36.1 14.5507L32.7666 8.78399C32.5666 8.41732 32.1166 8.26732 31.75 8.41732L27.6 10.084C26.7333 9.43399 25.8333 8.86732 24.7833 8.45065L24.1666 4.03399C24.1328 3.83768 24.0305 3.6597 23.878 3.53157C23.7255 3.40345 23.5325 3.33345 23.3333 3.33399H16.6666C16.25 3.33399 15.9 3.63399 15.8333 4.03399L15.2166 8.45065C14.1666 8.86732 13.2666 9.43399 12.4 10.084L8.24998 8.41732C7.88331 8.26732 7.43331 8.41732 7.23331 8.78399L3.89998 14.5507C3.68331 14.9173 3.78331 15.3673 4.09998 15.6173L7.61664 18.334C7.54998 18.9007 7.49998 19.4507 7.49998 20.0007C7.49998 20.5507 7.54998 21.084 7.61664 21.6173L4.09998 24.384C3.78331 24.634 3.68331 25.084 3.89998 25.4507L7.23331 31.2173C7.43331 31.584 7.88331 31.7173 8.24998 31.584L12.4 29.9007C13.2666 30.5673 14.1666 31.134 15.2166 31.5507L15.8333 35.9673C15.9 36.3673 16.25 36.6673 16.6666 36.6673H23.3333C23.75 36.6673 24.1 36.3673 24.1666 35.9673L24.7833 31.5507C25.8333 31.1173 26.7333 30.5673 27.6 29.9007L31.75 31.584C32.1166 31.7173 32.5666 31.584 32.7666 31.2173L36.1 25.4507C36.3 25.084 36.2166 24.634 35.9 24.384L32.3833 21.6173Z" fill="#2D4C52"/>
</svg>
