<svg width="40" height="40" viewBox="0 0 40 40" fill="none" xmlns="http://www.w3.org/2000/svg">
<path d="M34.8666 8.39518C34.3257 7.64002 33.5588 7.07623 32.6767 6.78518L24.445 4.04685C21.5522 3.09636 18.4311 3.09636 15.5383 4.04685L7.32165 6.78351C6.44021 7.07843 5.67375 7.64292 5.13062 8.3972C4.5875 9.15147 4.29518 10.0574 4.29498 10.9868V19.8152C4.29398 22.1974 4.89798 24.5408 6.05034 26.6257C7.2027 28.7106 8.86567 30.4687 10.8833 31.7352L17.6483 36.0035C18.3567 36.4355 19.1703 36.664 20 36.664C20.8297 36.664 21.6433 36.4355 22.3517 36.0035L29.1183 31.7352C31.1357 30.4685 32.7983 28.7103 33.9504 26.6254C35.1024 24.5405 35.7062 22.1972 35.705 19.8152V10.9885C35.7064 10.0575 35.4119 9.14983 34.8666 8.39518ZM25.72 19.9935H14.2833C13.8561 19.9935 13.4464 19.8238 13.1443 19.5217C12.8422 19.2196 12.6725 18.8099 12.6725 18.3827C12.6725 17.9555 12.8422 17.5457 13.1443 17.2436C13.4464 16.9416 13.8561 16.7718 14.2833 16.7718H25.72C26.1382 16.7853 26.5349 16.9609 26.826 17.2615C27.1171 17.5622 27.2798 17.9642 27.2798 18.3827C27.2798 18.8011 27.1171 19.2032 26.826 19.5038C26.5349 19.8045 26.1382 19.9801 25.72 19.9935Z" fill="#2D4C52"/>
</svg>
