<svg width="40" height="40" viewBox="0 0 40 40" fill="none" xmlns="http://www.w3.org/2000/svg">
<path d="M10.8333 12.5007C10.8333 10.0695 11.7991 7.73792 13.5182 6.01884C15.2373 4.29976 17.5688 3.33398 20 3.33398C22.4312 3.33398 24.7627 4.29976 26.4818 6.01884C28.2009 7.73792 29.1667 10.0695 29.1667 12.5007C29.1667 14.9318 28.2009 17.2634 26.4818 18.9825C24.7627 20.7015 22.4312 21.6673 20 21.6673C17.5688 21.6673 15.2373 20.7015 13.5182 18.9825C11.7991 17.2634 10.8333 14.9318 10.8333 12.5007ZM5 31.6673C5 29.4572 5.87797 27.3376 7.44078 25.7748C9.00358 24.212 11.1232 23.334 13.3333 23.334H26.6667C28.8768 23.334 30.9964 24.212 32.5592 25.7748C34.122 27.3376 35 29.4572 35 31.6673V36.6673H5V31.6673Z" fill="#2D4C52"/>
</svg>
